<svg width="700" height="569" viewBox="0 0 700 569" fill="none" xmlns="http://www.w3.org/2000/svg">
<path d="M103.229 509.5C98.1224 511.295 92.6398 511.745 87.3093 510.806C81.9787 509.867 76.9798 507.571 72.7942 504.139C62.1343 495.192 58.7922 480.451 56.0728 466.803L48.0293 426.433L64.8692 438.028C76.9794 446.367 89.3624 454.972 97.7475 467.05C106.133 479.129 109.793 495.616 103.056 508.685" fill="#E6E6E6"/>
<path d="M101.79 558.377C103.495 545.962 105.247 533.387 104.052 520.839C102.99 509.695 99.5902 498.81 92.6684 489.886C88.9944 485.157 84.5237 481.106 79.4575 477.914C78.1364 477.08 76.9205 479.174 78.2359 480.004C87.0019 485.544 93.7821 493.725 97.5989 503.367C101.814 514.089 102.491 525.778 101.765 537.168C101.326 544.056 100.395 550.899 99.4564 557.733C99.3824 558.042 99.4286 558.368 99.5855 558.644C99.7424 558.921 99.9984 559.127 100.302 559.222C100.611 559.305 100.941 559.263 101.22 559.105C101.498 558.947 101.703 558.685 101.79 558.377V558.377Z" fill="#F2F2F2"/>
<path d="M85.3738 536.408C83.1838 539.736 80.1735 542.445 76.6329 544.272C73.0923 546.1 69.1407 546.984 65.1589 546.841C54.9258 546.356 46.3946 539.213 38.7149 532.433L16 512.377L31.0335 511.658C41.8447 511.14 52.9348 510.658 63.2321 513.992C73.5294 517.326 83.0261 525.35 84.9091 536.008" fill="#E6E6E6"/>
<path d="M106.607 565.513C98.403 550.998 88.8876 534.865 71.885 529.709C67.1574 528.28 62.2003 527.768 57.2805 528.201C55.7299 528.334 56.1171 530.725 57.6648 530.591C65.9115 529.906 74.1422 532.084 80.9713 536.757C87.5428 541.23 92.6595 547.449 96.9902 554.044C99.6429 558.083 102.019 562.294 104.396 566.499C105.155 567.843 107.375 566.873 106.607 565.513V565.513Z" fill="#F2F2F2"/>
<path d="M326.489 274.723L147.636 422.958C145.385 424.818 142.489 425.711 139.581 425.439C136.674 425.166 133.993 423.752 132.127 421.506L56.7321 330.537C54.8712 328.287 53.979 325.39 54.2512 322.483C54.5233 319.576 55.9376 316.895 58.1838 315.029L237.037 166.795C239.287 164.934 242.184 164.041 245.091 164.314C247.999 164.586 250.68 166 252.546 168.246L327.941 259.215C329.801 261.465 330.694 264.362 330.422 267.269C330.149 270.177 328.735 272.857 326.489 274.723Z" fill="#CCCCCC"/>
<path d="M319.322 270.26L144.58 415.087C143.421 416.045 141.929 416.505 140.431 416.365C138.933 416.225 137.552 415.496 136.591 414.339L64.6036 327.482C63.645 326.323 63.1853 324.83 63.3255 323.333C63.4657 321.835 64.1943 320.454 65.3515 319.493L240.093 174.666C241.252 173.707 242.745 173.248 244.242 173.388C245.74 173.528 247.121 174.257 248.082 175.414L320.07 262.271C321.028 263.43 321.488 264.922 321.348 266.42C321.208 267.918 320.479 269.299 319.322 270.26Z" fill="white"/>
<path d="M327.376 300.577L291.436 297.213L317.159 276.968L331.016 293.687C331.556 294.325 331.891 295.112 331.977 295.943C332.063 296.775 331.896 297.613 331.498 298.348C331.236 298.847 330.879 299.29 330.446 299.651C330.021 300.001 329.531 300.263 329.004 300.422C328.477 300.581 327.923 300.634 327.376 300.577V300.577Z" fill="#CCCCCC"/>
<path d="M255.203 236.202L166.804 309.467C166.265 309.915 165.642 310.251 164.972 310.458C164.302 310.665 163.597 310.738 162.899 310.672C162.201 310.607 161.522 310.405 160.902 310.077C160.282 309.75 159.733 309.303 159.285 308.763C158.838 308.223 158.501 307.6 158.294 306.93C158.087 306.26 158.015 305.556 158.08 304.858C158.145 304.159 158.348 303.481 158.675 302.861C159.003 302.241 159.449 301.691 159.989 301.244L248.388 227.979C248.928 227.531 249.551 227.194 250.221 226.988C250.891 226.781 251.595 226.708 252.293 226.773C252.991 226.839 253.67 227.041 254.29 227.368C254.91 227.696 255.46 228.143 255.907 228.682C256.355 229.222 256.691 229.845 256.898 230.515C257.105 231.185 257.178 231.89 257.112 232.588C257.047 233.286 256.845 233.965 256.517 234.585C256.19 235.205 255.743 235.754 255.203 236.202V236.202Z" fill="#CCCCCC"/>
<path d="M211.94 242.582L152.322 291.993C151.232 292.897 149.827 293.33 148.417 293.198C147.007 293.066 145.707 292.38 144.803 291.289C143.899 290.199 143.465 288.794 143.597 287.384C143.729 285.974 144.416 284.674 145.507 283.77L205.124 234.358C206.215 233.455 207.62 233.021 209.03 233.153C210.44 233.285 211.74 233.972 212.644 235.062C213.547 236.153 213.981 237.558 213.849 238.968C213.717 240.378 213.03 241.678 211.94 242.582Z" fill="#CCCCCC"/>
<path d="M119.561 343.635C128.778 343.635 136.249 336.163 136.249 326.947C136.249 317.73 128.778 310.259 119.561 310.259C110.345 310.259 102.873 317.73 102.873 326.947C102.873 336.163 110.345 343.635 119.561 343.635Z" fill="#71C55E"/>
<path d="M252.307 293.496C255.256 293.496 257.647 291.105 257.647 288.156C257.647 285.206 255.256 282.815 252.307 282.815C249.358 282.815 246.967 285.206 246.967 288.156C246.967 291.105 249.358 293.496 252.307 293.496Z" fill="#E6E6E6"/>
<path d="M266.698 281.569C269.647 281.569 272.038 279.178 272.038 276.229C272.038 273.28 269.647 270.889 266.698 270.889C263.748 270.889 261.357 273.28 261.357 276.229C261.357 279.178 263.748 281.569 266.698 281.569Z" fill="#E6E6E6"/>
<path d="M281.088 269.642C284.037 269.642 286.428 267.251 286.428 264.302C286.428 261.353 284.037 258.962 281.088 258.962C278.139 258.962 275.748 261.353 275.748 264.302C275.748 267.251 278.139 269.642 281.088 269.642Z" fill="#E6E6E6"/>
<path d="M195.973 556.214L208.233 556.213L214.065 508.925L195.971 508.926L195.973 556.214Z" fill="#C68642"/>
<path d="M192.846 552.211L216.99 552.21H216.991C219.011 552.21 221.012 552.608 222.879 553.381C224.745 554.154 226.442 555.288 227.87 556.716C229.299 558.145 230.433 559.841 231.206 561.708C231.979 563.575 232.377 565.576 232.377 567.596V568.096L192.846 568.098L192.846 552.211Z" fill="#2F2E41"/>
<path d="M151.973 556.214L164.233 556.213L170.065 508.925L151.971 508.926L151.973 556.214Z" fill="#C68642"/>
<path d="M148.846 552.211L172.99 552.21H172.991C175.011 552.21 177.012 552.608 178.879 553.381C180.745 554.154 182.442 555.288 183.87 556.716C185.299 558.145 186.433 559.841 187.206 561.708C187.979 563.575 188.377 565.576 188.377 567.596V568.096L148.846 568.098L148.846 552.211Z" fill="#2F2E41"/>
<path d="M164.276 541.745H164.274L153.849 541.742C152.682 541.746 151.56 541.295 150.721 540.485C149.882 539.675 149.391 538.57 149.354 537.404L149.025 528.283C146.39 455.343 143.664 379.919 160.543 346.019L160.675 345.752L216.555 343.729L227.774 446.641C228.253 451.03 228.077 455.467 227.254 459.805L212.423 537.953C212.223 539.013 211.648 539.965 210.804 540.636C209.961 541.308 208.904 541.654 207.826 541.611L196.116 541.231C195.502 541.207 194.901 541.058 194.347 540.792C193.794 540.527 193.301 540.151 192.898 539.688C192.495 539.225 192.191 538.685 192.005 538.1C191.818 537.515 191.753 536.899 191.814 536.288L201.013 464.009C201.326 460.889 201.043 457.738 200.178 454.725L188.738 414.73C188.643 414.4 188.438 414.112 188.156 413.914C187.874 413.717 187.533 413.622 187.19 413.647C186.847 413.671 186.523 413.812 186.271 414.047C186.02 414.282 185.857 414.596 185.81 414.937L168.733 537.864C168.58 538.938 168.045 539.922 167.227 540.634C166.409 541.347 165.361 541.741 164.276 541.745V541.745Z" fill="#2F2E41"/>
<path d="M170.959 240.842C184.524 240.842 195.521 229.845 195.521 216.281C195.521 202.716 184.524 191.72 170.959 191.72C157.395 191.72 146.398 202.716 146.398 216.281C146.398 229.845 157.395 240.842 170.959 240.842Z" fill="#C68642"/>
<path d="M213.936 351.326H163.113C162.467 351.326 161.829 351.187 161.242 350.918C160.654 350.65 160.132 350.258 159.709 349.769C159.287 349.281 158.974 348.707 158.793 348.087C158.612 347.467 158.567 346.815 158.66 346.176L161.171 328.979L146.427 288.426C144.905 284.239 144.339 279.765 144.772 275.331C145.204 270.898 146.624 266.617 148.926 262.803C151.228 258.99 154.355 255.74 158.077 253.293C161.799 250.845 166.022 249.262 170.436 248.659V248.659C176.724 247.782 183.129 248.941 188.711 251.967C194.293 254.993 198.759 259.726 201.457 265.474L204.695 272.365L218.361 346.006C218.481 346.655 218.457 347.323 218.291 347.962C218.124 348.601 217.819 349.196 217.396 349.704C216.974 350.211 216.445 350.62 215.847 350.9C215.249 351.181 214.597 351.326 213.936 351.326H213.936Z" fill="#71C55E"/>
<path d="M106.65 394.462C108.18 394.107 109.613 393.421 110.849 392.452C112.085 391.482 113.093 390.254 113.803 388.853C114.513 387.452 114.907 385.913 114.957 384.343C115.008 382.773 114.713 381.212 114.095 379.768L153.697 290.296L131.043 284.59L99.2383 374.332C96.882 375.532 95.0476 377.554 94.0827 380.016C93.1178 382.478 93.0895 385.208 94.0031 387.689C94.9167 390.171 96.7088 392.231 99.0397 393.479C101.371 394.727 104.078 395.077 106.65 394.462H106.65Z" fill="#C68642"/>
<path d="M148.335 306.297L126.302 295.983C125.675 295.69 125.119 295.265 124.671 294.737C124.223 294.209 123.894 293.591 123.707 292.924C123.52 292.258 123.478 291.559 123.585 290.875C123.692 290.191 123.946 289.539 124.328 288.962L137.718 268.739C139.239 265.542 141.965 263.078 145.299 261.888C148.633 260.697 152.303 260.876 155.505 262.387C158.707 263.897 161.18 266.615 162.381 269.945C163.583 273.275 163.416 276.945 161.916 280.152L154.992 303.315C154.794 303.978 154.455 304.591 153.998 305.111C153.542 305.632 152.978 306.047 152.346 306.33C151.715 306.613 151.029 306.757 150.337 306.751C149.645 306.745 148.962 306.59 148.335 306.297H148.335Z" fill="#71C55E"/>
<path d="M271.851 164.224C272.329 165.72 272.474 167.302 272.274 168.86C272.075 170.418 271.536 171.913 270.696 173.24C269.856 174.567 268.736 175.694 267.413 176.541C266.091 177.388 264.599 177.935 263.042 178.143L206.473 257.978L189.971 241.441L250.765 168.166C250.589 165.528 251.387 162.917 253.007 160.827C254.627 158.738 256.958 157.315 259.557 156.83C262.156 156.344 264.843 156.828 267.109 158.191C269.375 159.554 271.062 161.7 271.851 164.224V164.224Z" fill="#C68642"/>
<path d="M219.554 248.607C219.635 249.295 219.567 249.992 219.354 250.65C219.14 251.309 218.788 251.914 218.32 252.424L201.97 270.233C199.985 273.165 196.917 275.191 193.44 275.865C189.964 276.54 186.361 275.808 183.423 273.83C180.485 271.853 178.451 268.791 177.767 265.316C177.084 261.841 177.806 258.237 179.775 255.293L190.287 233.436C190.588 232.812 191.019 232.26 191.551 231.818C192.084 231.376 192.705 231.054 193.373 230.873C194.042 230.693 194.741 230.659 195.424 230.773C196.106 230.887 196.756 231.148 197.33 231.536L217.472 245.179C218.045 245.567 218.528 246.074 218.887 246.666C219.247 247.258 219.474 247.92 219.554 248.607V248.607Z" fill="#71C55E"/>
<path d="M203.23 206C203.215 203.777 202.906 201.566 202.312 199.424C198.355 184.802 183.747 176.025 169.087 178.228C166.236 177.41 163.284 176.997 160.318 177V177C152.773 177 145.477 179.698 139.747 184.607C134.017 189.515 130.23 196.311 129.072 203.767L117.23 280H181.23L191.564 213.475C191.948 211.002 192.038 208.493 191.833 206H203.23Z" fill="#2F2E41"/>
<path d="M282.775 568.652H71.7754C71.5102 568.652 71.2558 568.547 71.0683 568.359C70.8808 568.172 70.7754 567.918 70.7754 567.652C70.7754 567.387 70.8808 567.133 71.0683 566.945C71.2558 566.758 71.5102 566.652 71.7754 566.652H282.775C283.041 566.652 283.295 566.758 283.482 566.945C283.67 567.133 283.775 567.387 283.775 567.652C283.775 567.918 283.67 568.172 283.482 568.359C283.295 568.547 283.041 568.652 282.775 568.652Z" fill="#CCCCCC"/>
<path d="M495.346 77.6673C496.809 77.5265 498.285 77.7083 499.671 78.1998C501.056 78.6913 502.317 79.4806 503.365 80.5121C504.412 81.5436 505.221 82.7923 505.733 84.17C506.246 85.5478 506.45 87.0213 506.332 88.4866L539.039 102.882L523.438 112.952L494.77 97.7387C492.322 97.3767 490.091 96.1291 488.501 94.2324C486.911 92.3356 486.072 89.9215 486.143 87.4474C486.214 84.9733 487.19 82.6113 488.886 80.8087C490.582 79.0062 492.881 77.8885 495.346 77.6674V77.6673Z" fill="#F1C27D"/>
<path d="M627.278 59.7109C640.843 59.7109 651.839 48.7146 651.839 35.1499C651.839 21.5852 640.843 10.5889 627.278 10.5889C613.713 10.5889 602.717 21.5852 602.717 35.1499C602.717 48.7146 613.713 59.7109 627.278 59.7109Z" fill="#F1C27D"/>
<path d="M582.824 385.364L570.564 385.363L564.732 338.075L582.826 338.076L582.824 385.364Z" fill="#F1C27D"/>
<path d="M585.952 397.248L546.422 397.247V396.747C546.422 394.726 546.82 392.725 547.593 390.858C548.366 388.992 549.5 387.296 550.928 385.867C552.357 384.438 554.053 383.305 555.92 382.531C557.787 381.758 559.788 381.36 561.808 381.36H561.809L585.953 381.361L585.952 397.248Z" fill="#2F2E41"/>
<path d="M633.824 385.364L621.564 385.363L615.732 338.075L633.826 338.076L633.824 385.364Z" fill="#F1C27D"/>
<path d="M636.952 397.248L597.422 397.247V396.747C597.422 394.726 597.82 392.725 598.593 390.858C599.366 388.992 600.5 387.296 601.928 385.867C603.357 384.438 605.053 383.305 606.92 382.531C608.787 381.758 610.788 381.36 612.808 381.36H612.809L636.953 381.361L636.952 397.248Z" fill="#2F2E41"/>
<path d="M633.245 375.292C633.061 375.292 632.878 375.28 632.696 375.258L614.75 373.049C613.699 372.921 612.727 372.426 612.005 371.651C611.284 370.876 610.859 369.871 610.806 368.813L605.576 251.05C605.558 250.716 605.43 250.397 605.21 250.145C604.99 249.892 604.692 249.721 604.364 249.657C604.035 249.593 603.695 249.641 603.397 249.793C603.099 249.945 602.86 250.193 602.719 250.496L589.285 295.28L586.518 367.217C586.494 367.837 586.342 368.446 586.072 369.005C585.801 369.563 585.418 370.06 584.947 370.463C584.475 370.867 583.924 371.168 583.331 371.349C582.737 371.529 582.112 371.585 581.495 371.512L565.955 369.683C564.844 369.555 563.82 369.017 563.085 368.174C562.35 367.331 561.956 366.244 561.982 365.126L563.301 297.412L573.83 191.12L574.3 191.138L638.322 193.605L637.745 370.807C637.741 371.998 637.265 373.138 636.422 373.979C635.578 374.82 634.436 375.292 633.245 375.292H633.245Z" fill="#2F2E41"/>
<path d="M635.895 203.318C635.855 203.318 635.816 203.318 635.777 203.317L571.298 201.628C570.666 201.611 570.045 201.462 569.474 201.189C568.904 200.916 568.398 200.526 567.988 200.045C567.578 199.563 567.275 199.001 567.097 198.394C566.92 197.787 566.872 197.15 566.957 196.523L579.347 105.332C580.121 99.1745 582.185 93.2495 585.403 87.9437C588.622 82.6379 592.924 78.0706 598.027 74.5399C602.517 71.4494 607.615 69.3555 612.981 68.3988C618.347 67.442 623.855 67.6447 629.136 68.993C651.642 74.6962 665.143 98.8632 659.233 122.865L640.265 199.894C640.02 200.869 639.457 201.735 638.666 202.355C637.875 202.975 636.9 203.314 635.895 203.318V203.318Z" fill="#025091"/>
<path d="M551.305 130.904C547.056 130.909 542.898 129.674 539.341 127.349L501.739 102.68C501.188 102.319 500.724 101.841 500.378 101.281C500.032 100.721 499.813 100.092 499.737 99.438C499.661 98.7842 499.729 98.1216 499.937 97.497C500.145 96.8724 500.487 96.301 500.94 95.8231L506.604 89.8426C507.222 89.1871 508.023 88.7327 508.903 88.5389C509.782 88.345 510.7 88.4206 511.536 88.7557L553.538 105.481L592.446 77.6952C594.266 76.396 596.335 75.4886 598.523 75.0304C600.712 74.5722 602.971 74.5732 605.159 75.0333C607.346 75.4934 609.415 76.4025 611.233 77.7032C613.052 79.004 614.58 80.6679 615.722 82.5898C616.864 84.5118 617.595 86.6498 617.868 88.8687C618.141 91.0876 617.95 93.339 617.309 95.4805C616.667 97.622 615.587 99.6069 614.139 101.31C612.69 103.012 610.904 104.396 608.893 105.373L560.805 128.73C557.843 130.164 554.595 130.908 551.305 130.904V130.904Z" fill="#025091"/>
<path d="M635.789 58.6378C639.979 59.6272 645.034 60.3864 648.029 57.2929C648.559 56.7089 649.033 56.0761 649.445 55.4028L653.36 49.4254C656.359 44.8465 659.411 40.1481 660.68 34.8236C661.41 31.7641 661.524 28.5901 661.016 25.486C660.509 22.382 659.389 19.4097 657.723 16.742C656.057 14.0742 653.878 11.764 651.311 9.94574C648.745 8.12743 645.843 6.83719 642.773 6.14999C636.928 4.84117 631.207 2.58922 625.231 3C619.255 3.41078 612.246 3.27592 607.231 0C607.544 1.46046 609.234 7.91341 609.234 7.91341C609.234 7.91341 601.692 14.8321 600.18 16.5572C602.159 15.6796 604.314 15.2675 606.478 15.3526C608.642 15.4378 610.758 16.0179 612.662 17.0485C614.567 18.079 616.21 19.5325 617.465 21.2973C618.72 23.062 619.554 25.0911 619.903 27.2285C620.331 29.8543 620.079 32.7665 621.639 34.9216C623.123 36.9714 625.785 37.6896 628.021 38.8732C631.245 40.71 633.707 43.6386 634.963 47.1307C636.218 50.6227 636.185 54.4485 634.868 57.9179L635.789 58.6378Z" fill="#2F2E41"/>
<path d="M606.299 212.115H402.71C400.15 212.112 397.697 211.094 395.887 209.284C394.077 207.474 393.06 205.021 393.057 202.462V98.9118C393.06 96.3525 394.077 93.8989 395.887 92.0893C397.697 90.2796 400.15 89.2617 402.71 89.2588H606.299C608.858 89.2617 611.312 90.2796 613.122 92.0893C614.931 93.8989 615.949 96.3525 615.952 98.9118V202.462C615.949 205.021 614.931 207.474 613.122 209.284C611.312 211.094 608.858 212.112 606.299 212.115V212.115Z" fill="#CCCCCC"/>
<path d="M603.958 205.094H405.049C403.731 205.093 402.467 204.569 401.534 203.636C400.602 202.704 400.078 201.44 400.076 200.122V101.252C400.078 99.9336 400.602 98.6696 401.534 97.7374C402.467 96.8051 403.731 96.2808 405.049 96.2793H603.958C605.277 96.2808 606.541 96.8051 607.473 97.7374C608.405 98.6696 608.929 99.9336 608.931 101.252V200.122C608.929 201.44 608.405 202.704 607.473 203.636C606.541 204.569 605.277 205.093 603.958 205.094V205.094Z" fill="white"/>
<path d="M592.439 230.057L570.068 207.687L598.748 208.412V227.443C598.756 228.176 598.542 228.894 598.135 229.503C597.728 230.113 597.147 230.585 596.467 230.858C596.011 231.049 595.523 231.147 595.029 231.149C594.546 231.147 594.069 231.05 593.624 230.862C593.18 230.675 592.777 230.401 592.439 230.057V230.057Z" fill="#CCCCCC"/>
<path d="M579.74 146.253H479.116C477.875 146.253 476.684 145.76 475.806 144.882C474.929 144.004 474.436 142.814 474.436 141.573C474.436 140.332 474.929 139.141 475.806 138.263C476.684 137.386 477.875 136.893 479.116 136.893H579.74C580.982 136.893 582.172 137.386 583.05 138.263C583.928 139.141 584.421 140.332 584.421 141.573C584.421 142.814 583.928 144.004 583.05 144.882C582.172 145.76 580.982 146.253 579.74 146.253V146.253Z" fill="#CCCCCC"/>
<path d="M546.978 126.362H479.115C478.5 126.363 477.89 126.243 477.322 126.008C476.753 125.773 476.236 125.429 475.801 124.994C475.366 124.559 475.02 124.043 474.785 123.475C474.549 122.907 474.428 122.297 474.428 121.682C474.428 121.067 474.549 120.458 474.785 119.89C475.02 119.321 475.366 118.805 475.801 118.37C476.236 117.936 476.753 117.591 477.322 117.356C477.89 117.121 478.5 117.001 479.115 117.002H546.978C548.219 117.002 549.41 117.495 550.287 118.373C551.165 119.25 551.658 120.441 551.658 121.682C551.658 122.923 551.165 124.114 550.287 124.992C549.41 125.869 548.219 126.362 546.978 126.362Z" fill="#CCCCCC"/>
<path d="M437.462 146.253C445.539 146.253 452.087 139.705 452.087 131.628C452.087 123.55 445.539 117.002 437.462 117.002C429.384 117.002 422.836 123.55 422.836 131.628C422.836 139.705 429.384 146.253 437.462 146.253Z" fill="#71C55E"/>
<path d="M548.731 184.372C551.316 184.372 553.411 182.277 553.411 179.692C553.411 177.107 551.316 175.012 548.731 175.012C546.146 175.012 544.051 177.107 544.051 179.692C544.051 182.277 546.146 184.372 548.731 184.372Z" fill="#E6E6E6"/>
<path d="M565.112 184.372C567.697 184.372 569.792 182.277 569.792 179.692C569.792 177.107 567.697 175.012 565.112 175.012C562.527 175.012 560.432 177.107 560.432 179.692C560.432 182.277 562.527 184.372 565.112 184.372Z" fill="#E6E6E6"/>
<path d="M581.493 184.372C584.078 184.372 586.173 182.277 586.173 179.692C586.173 177.107 584.078 175.012 581.493 175.012C578.908 175.012 576.812 177.107 576.812 179.692C576.812 182.277 578.908 184.372 581.493 184.372Z" fill="#E6E6E6"/>
<path d="M603.147 199.801C603.309 198.339 603.789 196.931 604.553 195.676C605.318 194.42 606.348 193.348 607.572 192.533C608.796 191.719 610.184 191.183 611.638 190.963C613.091 190.744 614.575 190.845 615.985 191.261L636.769 162.191L643.434 179.524L622.676 204.471C621.82 206.794 620.143 208.722 617.961 209.89C615.779 211.059 613.244 211.386 610.837 210.81C608.43 210.234 606.317 208.796 604.9 206.766C603.483 204.737 602.859 202.259 603.147 199.801H603.147Z" fill="#F1C27D"/>
<path d="M626.954 198.232C626.627 198.259 626.298 198.251 625.973 198.207C625.32 198.12 624.695 197.89 624.141 197.534C623.587 197.178 623.118 196.705 622.768 196.147L618.375 189.179C617.893 188.418 617.65 187.53 617.68 186.629C617.71 185.728 618.011 184.858 618.544 184.131L645.146 147.577L627.855 103.001C626.31 99.0794 626.369 94.7075 628.017 90.8281C629.666 86.9486 632.773 83.8723 636.669 82.262V82.262C638.87 81.3389 641.248 80.9149 643.633 81.0208C646.017 81.1266 648.349 81.7596 650.459 82.8741C652.57 83.9887 654.408 85.5571 655.84 87.4666C657.272 89.3762 658.263 91.5793 658.742 93.9177L669.47 146.291C670.216 149.985 669.996 153.808 668.831 157.392C667.665 160.975 665.595 164.197 662.819 166.746L629.609 197.071C628.877 197.741 627.943 198.149 626.954 198.232V198.232Z" fill="#025091"/>
<path d="M682.775 399.652H471.775C471.51 399.652 471.256 399.547 471.068 399.359C470.881 399.172 470.775 398.918 470.775 398.652C470.775 398.387 470.881 398.133 471.068 397.945C471.256 397.758 471.51 397.652 471.775 397.652H682.775C683.041 397.652 683.295 397.758 683.483 397.945C683.67 398.133 683.775 398.387 683.775 398.652C683.775 398.918 683.67 399.172 683.483 399.359C683.295 399.547 683.041 399.652 682.775 399.652Z" fill="#CCCCCC"/>
<g clip-path="url(#clip0_270_13079)">
<rect width="150" height="150" transform="translate(224.775)" fill="white"/>
<path d="M373.459 57.3267C373.405 57.3267 373.352 57.3082 373.309 57.2742L300.53 0.847289C300.308 0.676371 300.045 0.585029 299.776 0.585542C299.506 0.586055 299.243 0.678393 299.022 0.850151L226.768 57.2736C226.711 57.3182 226.64 57.3357 226.571 57.3223C226.502 57.3088 226.441 57.2654 226.401 57.2019C226.361 57.1383 226.345 57.0595 226.357 56.983C226.37 56.9065 226.408 56.8383 226.466 56.7938L298.72 0.370356C299.029 0.129933 299.397 0.000693053 299.775 2.77957e-06C300.152 -0.000687495 300.521 0.127204 300.831 0.366495L373.609 56.7932C373.655 56.8289 373.69 56.8799 373.708 56.9391C373.726 56.998 373.727 57.0618 373.71 57.1213C373.693 57.1811 373.66 57.2329 373.614 57.2698C373.569 57.3067 373.515 57.3267 373.459 57.3267Z" fill="#71C55E"/>
<path d="M230.896 59.3271L299.847 2.4375L369.321 63.375L303.4 106.881L267.61 97.7989L230.896 59.3271Z" fill="#E6E6E6"/>
<path d="M270.631 133.752H236.568C236.359 133.753 236.152 133.707 235.958 133.618C235.765 133.529 235.589 133.399 235.441 133.234C235.293 133.07 235.176 132.874 235.096 132.659C235.016 132.444 234.975 132.213 234.975 131.981C234.975 131.748 235.016 131.517 235.096 131.302C235.176 131.087 235.293 130.892 235.441 130.727C235.589 130.563 235.765 130.432 235.958 130.343C236.152 130.254 236.359 130.209 236.568 130.209H270.631C270.84 130.209 271.048 130.254 271.241 130.343C271.434 130.432 271.61 130.563 271.758 130.727C271.906 130.892 272.023 131.087 272.103 131.302C272.184 131.517 272.225 131.748 272.225 131.981C272.225 132.213 272.184 132.444 272.103 132.659C272.023 132.874 271.906 133.07 271.758 133.234C271.61 133.399 271.434 133.529 271.241 133.618C271.048 133.707 270.84 133.753 270.631 133.752Z" fill="url(#paint0_linear_270_13079)"/>
<path d="M248.789 126.135H236.568C236.359 126.136 236.152 126.09 235.958 126.001C235.765 125.912 235.589 125.782 235.441 125.617C235.293 125.453 235.176 125.257 235.096 125.042C235.016 124.827 234.975 124.596 234.975 124.364C234.975 124.131 235.016 123.9 235.096 123.685C235.176 123.47 235.293 123.274 235.441 123.11C235.589 122.945 235.765 122.815 235.958 122.726C236.152 122.637 236.359 122.592 236.568 122.592H248.789C248.998 122.592 249.206 122.637 249.399 122.726C249.592 122.815 249.768 122.945 249.916 123.11C250.064 123.274 250.181 123.47 250.261 123.685C250.341 123.9 250.383 124.131 250.383 124.364C250.383 124.596 250.341 124.827 250.261 125.042C250.181 125.257 250.064 125.453 249.916 125.617C249.768 125.782 249.592 125.912 249.399 126.001C249.206 126.09 248.998 126.136 248.789 126.135Z" fill="url(#paint1_linear_270_13079)"/>
<path d="M300.818 91.0132C300.559 91.0135 300.303 90.9576 300.063 90.8486L257.539 71.2053V9.71875C257.54 9.17506 257.734 8.65378 258.079 8.26932C258.425 7.88488 258.893 7.66861 259.381 7.66797H340.96C341.449 7.66861 341.917 7.88488 342.262 8.26932C342.607 8.65378 342.802 9.17506 342.802 9.71875V71.2481L342.722 71.2862L301.596 90.8389C301.35 90.9541 301.085 91.0132 300.818 91.0132Z" fill="white"/>
<path d="M300.817 91.1594C300.541 91.1597 300.267 91.1003 300.012 90.9842L257.406 71.3032V9.71875C257.407 9.13621 257.615 8.5777 257.985 8.16578C258.355 7.75387 258.857 7.52216 259.38 7.52148H340.959C341.482 7.52216 341.984 7.75387 342.354 8.16578C342.724 8.5777 342.932 9.13621 342.933 9.71875V71.3448L301.646 90.9734C301.384 91.0964 301.102 91.1597 300.817 91.1594ZM257.933 70.9118L300.212 90.4422C300.607 90.6204 301.048 90.6174 301.441 90.4343L342.406 70.9581V9.71875C342.406 9.29154 342.253 8.882 341.982 8.57992C341.71 8.27787 341.343 8.10792 340.959 8.10742H259.38C258.996 8.10792 258.628 8.27787 258.357 8.57992C258.086 8.882 257.933 9.29154 257.933 9.71875V70.9118Z" fill="#71C55E"/>
<path d="M372.933 56.7412H372.881L342.67 71.1025L301.336 90.752C301.174 90.8275 301.001 90.8671 300.826 90.868C300.651 90.8691 300.477 90.8316 300.315 90.7578L257.67 71.0615L226.717 56.7646L226.67 56.7412H226.617C226.129 56.7418 225.661 56.958 225.316 57.3424C224.97 57.7271 224.776 58.2482 224.775 58.792V147.854C224.776 148.398 224.97 148.919 225.316 149.304C225.661 149.688 226.129 149.905 226.617 149.905H372.933C373.422 149.905 373.89 149.688 374.235 149.304C374.581 148.919 374.775 148.398 374.775 147.854V58.792C374.775 58.2482 374.581 57.7271 374.235 57.3424C373.89 56.958 373.422 56.7418 372.933 56.7412ZM374.249 147.854C374.249 148.243 374.11 148.615 373.864 148.89C373.617 149.165 373.282 149.319 372.933 149.319H226.617C226.269 149.319 225.934 149.165 225.687 148.89C225.441 148.615 225.302 148.243 225.302 147.854V58.792C225.302 58.4132 225.434 58.0493 225.67 57.7763C225.906 57.5032 226.228 57.3424 226.568 57.3271L257.67 71.6943L300.112 91.2998C300.572 91.5078 301.086 91.5046 301.544 91.291L342.67 71.7383L372.986 57.3271C373.325 57.3433 373.646 57.5047 373.881 57.7777C374.116 58.0505 374.248 58.4138 374.249 58.792V147.854Z" fill="#71C55E"/>
<path d="M300.393 73.578C298.823 73.5812 297.295 73.0161 296.039 71.9678L295.961 71.9028L279.563 57.9258C278.804 57.2781 278.166 56.4701 277.687 55.5481C277.209 54.6261 276.897 53.6081 276.772 52.5522C276.646 51.4963 276.709 50.4235 276.956 49.3943C277.203 48.3654 277.629 47.4006 278.211 46.5551C278.793 45.7099 279.519 45.0003 280.347 44.4671C281.175 43.9339 282.09 43.5874 283.038 43.4476C283.986 43.3079 284.95 43.3776 285.875 43.6524C286.799 43.9275 287.665 44.4024 288.425 45.0501L299.046 54.1169L324.145 17.6754C324.727 16.8302 325.454 16.1209 326.282 15.588C327.11 15.0551 328.025 14.7091 328.973 14.5697C329.922 14.4304 330.886 14.5003 331.81 14.7756C332.734 15.051 333.6 15.5263 334.36 16.1744L334.204 16.4102L334.364 16.1778C335.895 17.4881 336.897 19.4212 337.15 21.553C337.402 23.6847 336.885 25.8411 335.712 27.5489L306.189 70.4127C305.506 71.4006 304.628 72.1999 303.623 72.7489C302.618 73.2976 301.512 73.5815 300.393 73.578Z" fill="url(#paint2_linear_270_13079)"/>
</g>
<defs>
<linearGradient id="paint0_linear_270_13079" x1="253.6" y1="130.209" x2="253.6" y2="133.752" gradientUnits="userSpaceOnUse">
<stop stop-color="#025091"/>
<stop offset="0.520833" stop-color="#71C55E"/>
</linearGradient>
<linearGradient id="paint1_linear_270_13079" x1="242.679" y1="122.592" x2="242.679" y2="126.135" gradientUnits="userSpaceOnUse">
<stop stop-color="#025091"/>
<stop offset="0.520833" stop-color="#71C55E"/>
</linearGradient>
<linearGradient id="paint2_linear_270_13079" x1="306.961" y1="14.5" x2="306.961" y2="73.578" gradientUnits="userSpaceOnUse">
<stop stop-color="#025091"/>
<stop offset="0.520833" stop-color="#71C55E"/>
</linearGradient>
<clipPath id="clip0_270_13079">
<rect width="150" height="150" fill="white" transform="translate(224.775)"/>
</clipPath>
</defs>
</svg>
