<svg width="299" height="60" viewBox="0 0 299 60" fill="none" xmlns="http://www.w3.org/2000/svg">
<g clip-path="url(#clip0_277_13050)">
<path d="M57.229 7.0688L56.6635 3.73233H35.6268L35.0613 7.0688L41.9604 9.67012V28.8973H15.2686V9.67012L22.1678 7.0688L21.6023 3.73233H0.565504L0 7.0688L6.89915 9.67012V53.214L0.0565504 55.8153L0.735156 59.1517H21.4326L21.9981 55.8153L15.2686 53.214V32.2337H41.9604V53.214L35.0613 55.8153L35.6268 59.1517H56.5504L57.0594 55.8153L50.3299 53.214V9.67012L57.229 7.0688ZM76.23 54.6277V22.1678L72.6107 21.3195L64.1847 22.1678L64.7502 25.0518H68.8219V54.6277L63.5627 56.3242L64.1847 59.1517H80.754L81.3761 56.3242L76.23 54.6277ZM72.2714 3.95853C70.0094 3.95853 68.0302 5.88124 68.0302 8.25636C68.0302 10.6315 70.0094 12.4976 72.2714 12.4976C74.6466 12.4976 76.6258 10.6315 76.6258 8.25636C76.6258 5.88124 74.6466 3.95853 72.2714 3.95853ZM100.32 54.6277V0.904807L96.7578 0L88.3318 0.904807L88.8973 3.73233H92.8558V54.6277L87.7097 56.3242L88.2752 59.1517H104.901L105.467 56.3242L100.32 54.6277ZM124.354 54.6277V0.904807L120.792 0L112.422 0.904807L112.988 3.73233H116.946V54.6277L111.8 56.3242L112.366 59.1517H128.992L129.5 56.3242L124.354 54.6277ZM137.304 22.1678V30.7069L140.132 31.2724L142.111 25.0518H161.565L157.38 27.1442L134.647 56.3242L136.117 59.1517H166.202V48.6899L163.261 48.1244L160.716 56.3242H140.132L145.335 53.836L168.181 25.0518L165.523 22.1678H137.304ZM191.932 21.3195C180.17 21.3195 173.327 28.7276 173.327 40.6032C173.327 52.4788 179.378 60 191.932 60C204.486 60 210.537 52.8181 210.537 40.6032C210.537 28.4449 203.638 21.3195 191.932 21.3195ZM191.932 24.2601C198.549 24.2601 202.903 30.2545 202.903 40.377C202.903 50.443 198.662 57.1159 191.932 57.1159C185.203 57.1159 180.961 50.3864 180.961 40.377C180.961 30.4241 185.316 24.2601 191.932 24.2601ZM229.029 54.6277V27.1442C231.574 25.9566 234.402 25.0518 237.512 25.0518C241.697 25.0518 245.372 28.049 245.372 33.082V54.6277L240.226 56.3242L240.848 59.1517H257.361L257.926 56.3242L252.78 54.6277V34.2696C252.78 25.9001 247.974 21.3195 239.321 21.3195C235.193 21.3195 232.366 22.6767 229.029 24.2601L226.202 21.3195L217.097 22.1678L217.663 25.0518H221.621V54.6277L216.475 56.3242L216.984 59.1517H233.61L234.288 56.3242L229.029 54.6277ZM272.403 36.7578C273.082 29.4062 276.249 24.2601 283.035 24.2601C288.52 24.2601 291.517 27.3139 291.517 33.082C291.517 34.213 291.291 35.7399 290.952 36.7578H272.403ZM284.958 56.3242C276.362 56.3242 272.29 49.4816 272.29 39.9812V39.5853H297.625C298.247 38.2281 298.926 35.853 298.926 33.7606C298.926 26.1263 292.196 21.3195 283.035 21.3195C271.951 21.3195 263.864 28.4449 263.864 40.6032C263.864 52.3657 270.424 60 284.449 60C289.595 60 294.684 58.4166 298.077 55.3629L296.268 52.7615C292.988 54.7974 289.142 56.3242 284.958 56.3242Z" fill="#71C55E"/>
</g>
<defs>
<clipPath id="clip0_277_13050">
<rect width="298.926" height="60" fill="white"/>
</clipPath>
</defs>
</svg>
